
<svg width="178px" height="178px" viewBox="0 0 178 178" version="1.1" xmlns="http://www.w3.org/2000/svg" xmlns:xlink="http://www.w3.org/1999/xlink">
    <!-- Generator: Sketch 50 (54983) - http://www.bohemiancoding.com/sketch -->
    <desc>Created with Sketch.</desc>
    <defs></defs>
    <g id="Scan" stroke="none" stroke-width="1" fill="none" fill-rule="evenodd">
        <g id="Step-1" transform="translate(-112.000000, -112.000000)" fill="#385FF0">
            <path d="M290,261.385861 L290,241.562814 C290,239.087691 287.99339,237.081081 285.518267,237.081081 C283.043144,237.081081 281.036535,239.087691 281.036535,241.562814 L281.036535,261.385861 C281.036535,272.221139 272.221139,281.036535 261.385861,281.036535 L241.562814,281.036535 C239.087691,281.036535 237.081081,283.043144 237.081081,285.518267 C237.081081,287.99339 239.087691,290 241.562814,290 L261.385861,290 C277.163628,290 290,277.163628 290,261.385861 M164.918919,285.518267 C164.918919,283.043144 162.912309,281.036535 160.437186,281.036535 L140.614139,281.036535 C129.778861,281.036535 120.963465,272.221139 120.963465,261.385861 L120.963465,241.562814 C120.963465,239.087691 118.956856,237.081081 116.481733,237.081081 C114.00661,237.081081 112,239.087691 112,241.562814 L112,261.385861 C112,277.163628 124.836372,290 140.614139,290 L160.437186,290 C162.912309,290 164.918919,287.99339 164.918919,285.518267 M120.963465,160.437186 L120.963465,140.614139 C120.963465,129.778688 129.778861,120.963465 140.614139,120.963465 L160.437186,120.963465 C162.912309,120.963465 164.918919,118.956856 164.918919,116.481733 C164.918919,114.00661 162.912309,112 160.437186,112 L140.614139,112 C124.836372,112 112,124.836199 112,140.614139 L112,160.437186 C112,162.912309 114.00661,164.918919 116.481733,164.918919 C118.956856,164.918919 120.963465,162.912309 120.963465,160.437186 M290,160.437186 L290,140.614139 C290,124.836199 277.163628,112 261.385861,112 L241.562814,112 C239.087691,112 237.081081,114.00661 237.081081,116.481733 C237.081081,118.956856 239.087691,120.963465 241.562814,120.963465 L261.385861,120.963465 C272.221139,120.963465 281.036535,129.778688 281.036535,140.614139 L281.036535,160.437186 C281.036535,162.912309 283.043144,164.918919 285.518267,164.918919 C287.99339,164.918919 290,162.912309 290,160.437186 M232.356988,243.822414 C234.271308,242.019576 234.38962,238.975884 232.6214,237.024086 C230.853005,235.072289 227.867931,234.95166 225.953612,236.75432 C219.141997,243.169558 210.279924,246.702536 201,246.702536 C191.720076,246.702536 182.858003,243.169558 176.046388,236.75432 C174.131719,234.95166 171.146995,235.072467 169.3786,237.024086 C167.61038,238.975884 167.728692,242.019576 169.643012,243.822414 C178.203624,251.884404 189.339497,256.324324 201,256.324324 C212.660503,256.324324 223.796376,251.884404 232.356988,243.822414 M211.423423,212.342155 L211.423423,179.201014 C211.423423,176.627052 209.287858,174.540541 206.653382,174.540541 C204.018906,174.540541 201.883341,176.627052 201.883341,179.201014 L201.883341,212.342155 C201.883341,213.769813 200.694541,214.931306 199.233318,214.931306 L195.346618,214.931306 C192.712142,214.931306 190.576577,217.017817 190.576577,219.591779 C190.576577,222.165741 192.712142,224.252252 195.346618,224.252252 L199.233318,224.252252 C205.955013,224.252252 211.423423,218.909452 211.423423,212.342155 M243.495495,192.51844 L243.495495,179.013091 C243.495495,176.543015 241.341573,174.540541 238.684685,174.540541 C236.027797,174.540541 233.873874,176.543015 233.873874,179.013091 L233.873874,192.51844 C233.873874,194.988516 236.027797,196.990991 238.684685,196.990991 C241.341573,196.990991 243.495495,194.988516 243.495495,192.51844 M164.918919,196.990991 C162.262031,196.990991 160.108108,194.988516 160.108108,192.51844 L160.108108,179.013091 C160.108108,176.543015 162.262031,174.540541 164.918919,174.540541 C167.575807,174.540541 169.72973,176.543015 169.72973,179.013091 L169.72973,192.51844 C169.72973,194.988516 167.575807,196.990991 164.918919,196.990991" id="Face-ID"></path>
        </g>
    </g>
</svg>